<svg width="39" height="39" viewBox="0 0 39 39" fill="none" xmlns="http://www.w3.org/2000/svg">
<path d="M19.28 2.33788e-05C23.0888 0.00397907 26.811 1.13717 29.9759 3.25633C33.1407 5.37549 35.6062 8.38547 37.0606 11.9057C38.515 15.4259 38.893 19.2984 38.1467 23.0334C37.4005 26.7684 35.5636 30.1983 32.8683 32.8895C30.1729 35.5807 26.7401 37.4122 23.004 38.1526C19.2678 38.893 15.3959 38.509 11.878 37.0491C8.36001 35.5893 5.35388 33.1191 3.23965 29.9509C1.12542 26.7828 -0.00197295 23.0589 2.59187e-06 19.25C-4.81065e-07 16.7195 0.49891 14.2139 1.46819 11.8764C2.43747 9.53896 3.85809 7.41552 5.6488 5.6276C7.43951 3.83968 9.56515 2.42236 11.9041 1.45672C14.2431 0.491085 16.7495 -0.00392021 19.28 2.33788e-05Z" fill="white"/>
<path d="M11.9301 26.5699H26.5701V11.9299H11.9301V26.5699Z" fill="#C4161D"/>
</svg>
