<svg width="39" height="39" viewBox="0 0 39 39" fill="none" xmlns="http://www.w3.org/2000/svg">
<path d="M9.63 0C11.5346 0 13.3965 0.56479 14.9801 1.62295C16.5638 2.68111 17.7981 4.18511 18.527 5.94476C19.2558 7.70441 19.4465 9.64068 19.075 11.5087C18.7034 13.3768 17.7862 15.0927 16.4394 16.4394C15.0927 17.7862 13.3768 18.7034 11.5087 19.075C9.64068 19.4465 7.70441 19.2558 5.94476 18.527C4.1851 17.7981 2.68111 16.5638 1.62295 14.9801C0.56479 13.3965 0 11.5346 0 9.63C0 7.07597 1.01459 4.62654 2.82056 2.82056C4.62654 1.01459 7.07596 0 9.63 0Z" fill="white"/>
<path d="M9.63002 19.26C11.5355 19.26 13.3982 19.8253 14.9822 20.8844C16.5663 21.9434 17.8006 23.4486 18.5289 25.2094C19.2572 26.9702 19.4467 28.9075 19.0735 30.7761C18.7003 32.6447 17.7811 34.3605 16.4324 35.7065C15.0836 37.0525 13.3658 37.9681 11.4965 38.3374C9.6271 38.7067 7.6902 38.5132 5.9309 37.7812C4.1716 37.0493 2.66899 35.8119 1.61324 34.2256C0.557488 32.6393 -0.00393662 30.7755 2.07779e-05 28.87C2.00949e-05 27.6058 0.24918 26.3541 0.733255 25.1863C1.21733 24.0185 1.92683 22.9575 2.82119 22.0641C3.71555 21.1707 4.77723 20.4623 5.94554 19.9794C7.11384 19.4966 8.36586 19.2487 9.63002 19.25" fill="#C4161D"/>
<path d="M28.88 5.1945e-06C30.7851 -0.00197306 32.6479 0.561135 34.2329 1.61809C35.8178 2.67504 37.0537 4.17835 37.7841 5.93783C38.5145 7.69731 38.7066 9.63389 38.3362 11.5026C37.9657 13.3713 37.0494 15.0881 35.703 16.4359C34.3566 17.7837 32.6407 18.7018 30.7724 19.0742C28.9041 19.4466 26.9673 19.2565 25.2071 18.5279C23.4468 17.7993 21.9423 16.565 20.8837 14.9812C19.8251 13.3973 19.26 11.5351 19.26 9.63C19.26 7.0777 20.2732 4.62979 22.077 2.8241C23.8808 1.01841 26.3277 0.00265556 28.88 5.1945e-06Z" fill="#C4161D"/>
<path d="M28.88 19.26C30.7859 19.258 32.6495 19.8216 34.2349 20.8795C35.8203 21.9373 37.0561 23.4418 37.786 25.2025C38.5158 26.9631 38.7067 28.9007 38.3347 30.77C37.9626 32.6392 37.0442 34.356 35.6958 35.703C34.3475 37.05 32.6297 37.9665 30.7601 38.3367C28.8905 38.7068 26.953 38.5138 25.1932 37.7822C23.4333 37.0505 21.9301 35.8131 20.8739 34.2266C19.8177 32.6401 19.256 30.7759 19.26 28.87C19.26 26.3186 20.2735 23.8717 22.0776 22.0676C23.8817 20.2635 26.3286 19.25 28.88 19.25" fill="white"/>
</svg>
