<svg width="215" height="215" viewBox="0 0 215 215" fill="none" xmlns="http://www.w3.org/2000/svg">
<g opacity="0.2">
<path d="M53.2569 0C63.7901 0 74.0867 3.12346 82.8448 8.9754C91.6028 14.8273 98.4289 23.1449 102.46 32.8763C106.491 42.6078 107.545 53.3159 105.49 63.6468C103.435 73.9776 98.3633 83.467 90.9152 90.9152C83.467 98.3633 73.9776 103.435 63.6468 105.49C53.3159 107.545 42.6077 106.491 32.8763 102.46C23.1449 98.4289 14.8273 91.6028 8.9754 82.8448C3.12346 74.0868 0 63.7901 0 53.2569C0 39.1323 5.61097 25.5862 15.5986 15.5986C25.5862 5.61097 39.1323 0 53.2569 0Z" fill="#1D3C85"/>
<path d="M53.257 106.57C63.7949 106.57 74.096 109.753 82.8564 115.715C91.6168 121.677 98.4428 130.151 102.47 140.064C106.498 149.977 107.546 160.884 105.482 171.403C103.418 181.923 98.3352 191.583 90.876 199.161C83.4168 206.738 73.917 211.893 63.5789 213.972C53.2408 216.051 42.5292 214.961 32.7997 210.841C23.0702 206.72 14.7603 199.754 8.9217 190.823C3.08308 181.893 -0.0217707 171.4 0.000114908 160.672C0.000111131 153.555 1.37804 146.508 4.05513 139.934C6.73221 133.359 10.656 127.386 15.602 122.357C20.5481 117.327 26.4196 113.339 32.8806 110.62C39.3417 107.902 46.2658 106.506 53.257 106.514" fill="#1D3C85"/>
<path d="M160.701 2.87272e-05C171.431 -0.0109116 181.924 3.10325 190.852 8.94853C199.779 14.7938 206.741 23.1076 210.855 32.838C214.969 42.5685 216.051 53.2784 213.965 63.6129C211.878 73.9473 206.716 83.4419 199.133 90.8956C191.549 98.3492 181.884 103.427 171.36 105.486C160.836 107.546 149.927 106.494 140.012 102.465C130.097 98.4358 121.622 91.6098 115.659 82.8506C109.697 74.0913 106.514 63.7925 106.514 53.2569C106.514 39.1419 112.221 25.6042 122.381 15.6181C132.542 5.63213 146.324 0.0146861 160.701 2.87272e-05Z" fill="#1D3C85"/>
<path d="M160.701 106.57C171.436 106.559 181.933 109.732 190.864 115.687C199.794 121.643 206.755 130.113 210.866 140.025C214.976 149.937 216.052 160.845 213.956 171.369C211.861 181.892 206.688 191.557 199.093 199.141C191.498 206.724 181.822 211.884 171.291 213.968C160.76 216.052 149.847 214.965 139.934 210.846C130.021 206.727 121.554 199.761 115.605 190.829C109.655 181.897 106.492 171.402 106.514 160.672C106.514 146.309 112.223 132.533 122.385 122.376C132.547 112.22 146.329 106.514 160.701 106.514" fill="#1D3C85"/>
</g>
</svg>
