<svg width="262" height="347" viewBox="0 0 262 347" fill="none" xmlns="http://www.w3.org/2000/svg">
<g opacity="0.5">
<path d="M61.8391 40.3264C68.1631 25.7676 77.2756 12.5911 88.6593 1.5383L174.595 87.4744L260.576 173.455C249.524 184.839 236.347 193.952 221.788 200.276C206.931 206.729 190.933 210.149 174.735 210.334C158.537 210.518 142.466 207.464 127.465 201.35C112.464 195.237 98.8364 186.187 87.3821 174.733C75.9278 163.278 66.878 149.65 60.7643 134.649C54.6507 119.649 51.5964 103.577 51.781 87.3795C51.9656 71.1817 55.3852 55.1841 61.8391 40.3264Z" stroke="#C4161D" stroke-width="2"/>
<path d="M175.302 260.117L261.977 173.442C250.695 161.633 237.167 152.198 222.187 145.691C207.207 139.184 191.078 135.737 174.747 135.551C158.416 135.365 142.212 138.444 127.088 144.608C111.964 150.772 98.2235 159.896 86.675 171.445C75.1264 182.993 66.0022 196.733 59.8382 211.857C53.6743 226.982 50.5949 243.185 50.781 259.516C50.967 275.847 54.4149 291.976 60.9218 306.956C67.4288 321.936 76.8637 335.465 88.6724 346.747L175.302 260.117Z" fill="#C4161D"/>
</g>
</svg>
