<svg width="431" height="85" viewBox="0 0 431 85" fill="none" xmlns="http://www.w3.org/2000/svg">
<path d="M42.0586 0L54.4193 25.0455L82.0586 29.0617L62.0586 48.557L66.78 76.0846L42.0586 63.0878L17.3372 76.0846L22.0585 48.557L2.05849 29.0617L29.6979 25.0455L42.0586 0Z" fill="#F25C19"/>
<path d="M126.176 0L138.536 25.0455L166.176 29.0617L146.176 48.557L150.897 76.0846L126.176 63.0878L101.454 76.0846L106.176 48.557L86.1756 29.0617L113.815 25.0455L126.176 0Z" fill="#F25C19"/>
<path d="M215.099 0L227.46 25.0455L255.1 29.0617L235.099 48.557L239.821 76.0846L215.099 63.0878L190.378 76.0846L195.099 48.557L175.099 29.0617L202.739 25.0455L215.099 0Z" fill="#F25C19"/>
<path d="M300.018 0L312.378 25.0455L340.018 29.0617L320.018 48.557L324.739 76.0846L300.018 63.0878L275.296 76.0846L280.018 48.557L260.018 29.0617L287.657 25.0455L300.018 0Z" fill="#F25C19"/>
<mask id="mask0_51_1733" style="mask-type:alpha" maskUnits="userSpaceOnUse" x="348" y="0" width="81" height="77">
<path d="M388.941 0L401.302 25.0455L428.942 29.0617L408.942 48.557L413.663 76.0846L388.941 63.0878L364.22 76.0846L368.941 48.557L348.941 29.0617L376.581 25.0455L388.941 0Z" fill="#F25C19"/>
</mask>
<g mask="url(#mask0_51_1733)">
<rect x="338.872" y="-9.6134" width="75.3048" height="100.139" fill="#F25C19"/>
<path d="M388.941 3.38933L399.957 25.7094L400.306 26.4165L401.086 26.5299L425.718 30.1091L407.895 47.4828L407.33 48.0333L407.463 48.8105L411.671 73.3426L389.639 61.7601L388.941 61.3932L388.243 61.7601L366.212 73.3426L370.42 48.8105L370.553 48.0333L369.988 47.4828L352.165 30.1091L376.796 26.5299L377.577 26.4165L377.926 25.7094L388.941 3.38933Z" stroke="#F25C19" stroke-width="3"/>
</g>
</svg>
