<svg width="57" height="57" viewBox="0 0 57 57" fill="none" xmlns="http://www.w3.org/2000/svg">
<path d="M0 57H57V0H0V57Z" fill="#F25C19"/>
<path d="M28.5 13.7903C31.4099 13.7903 34.2545 14.6534 36.6738 16.2704C39.0932 17.8874 40.9785 20.1856 42.0914 22.8744C43.2043 25.5631 43.4947 28.5215 42.9259 31.3753C42.3571 34.2291 40.9546 36.8501 38.8959 38.9067C36.8372 40.9632 34.2147 42.363 31.3603 42.9289C28.5059 43.4947 25.5478 43.2012 22.8603 42.0855C20.1727 40.9699 17.8764 39.0821 16.2619 36.6611C14.6474 34.2401 13.7873 31.3946 13.7903 28.4847C13.7883 26.5532 14.1675 24.6402 14.9062 22.8555C15.6449 21.0708 16.7286 19.4494 18.0951 18.0843C19.4616 16.7192 21.0841 15.6372 22.8696 14.9004C24.6551 14.1635 26.5684 13.7863 28.5 13.7903Z" fill="#C4161D"/>
</svg>
