<svg width="216" height="216" viewBox="0 0 216 216" fill="none" xmlns="http://www.w3.org/2000/svg">
<g opacity="0.5">
<path d="M108.112 0.000131096C129.47 0.0223126 150.342 6.37666 168.089 18.2598C185.836 30.1429 199.661 47.0213 207.816 66.7609C215.972 86.5005 218.091 108.215 213.907 129.159C209.723 150.103 199.422 169.336 184.308 184.427C169.194 199.518 149.945 209.788 128.994 213.94C108.044 218.092 86.3324 215.938 66.6055 207.752C46.8786 199.566 30.0217 185.715 18.1663 167.949C6.31076 150.184 -0.0110632 129.302 1.45338e-05 107.944C-2.69756e-06 93.7544 2.79762 79.7041 8.23283 66.5968C13.668 53.4894 21.6342 41.5823 31.6755 31.5566C41.7168 21.5309 53.6363 13.5833 66.7521 8.16853C79.8679 2.75375 93.9226 -0.0219825 108.112 0.000131096Z" fill="#F25C19"/>
<path d="M66.6912 148.313H149.309V66.6912H66.6912V148.313Z" fill="#C4161D"/>
</g>
</svg>
