<svg width="262" height="347" viewBox="0 0 262 347" fill="none" xmlns="http://www.w3.org/2000/svg">
<g opacity="0.5">
<path d="M200.161 306.558C193.837 321.117 184.724 334.293 173.341 345.346L87.4047 259.41L1.42358 173.429C12.4763 162.045 25.6529 152.933 40.2117 146.609C55.0694 140.155 71.067 136.735 87.2648 136.551C103.463 136.366 119.534 139.42 134.535 145.534C149.536 151.648 163.164 160.697 174.618 172.152C186.072 183.606 195.122 197.234 201.236 212.235C207.349 227.236 210.404 243.307 210.219 259.505C210.034 275.703 206.615 291.7 200.161 306.558Z" stroke="#C4161D" stroke-width="2"/>
<path d="M86.6976 86.7673L0.0225742 173.442C11.305 185.251 24.8335 194.686 39.8133 201.193C54.7932 207.7 70.9224 211.148 87.2534 211.334C103.584 211.52 119.788 208.44 134.912 202.276C150.036 196.112 163.776 186.988 175.325 175.44C186.874 163.891 195.998 150.151 202.162 135.027C208.326 119.903 211.405 103.699 211.219 87.3681C211.033 71.0371 207.585 54.9079 201.078 39.928C194.571 24.9481 185.136 11.4196 173.328 0.137244L86.6976 86.7673Z" fill="#C4161D"/>
</g>
</svg>
