<svg width="1440" height="274" viewBox="0 0 1440 274" fill="none" xmlns="http://www.w3.org/2000/svg">
<path d="M18.7962 129.25V202.954H-6V18.0039H46.5016C54.9964 17.919 63.4487 19.2103 71.5287 21.8273C78.6125 24.1012 85.2285 27.6276 91.061 32.2379C96.3041 36.4834 100.585 41.7902 103.621 47.8078C106.671 53.802 108.254 60.4325 108.238 67.155C108.259 72.975 107.162 78.7449 105.006 84.1529C102.829 89.3721 99.9216 94.2574 96.3712 98.6633C92.8057 103.088 88.7294 107.077 84.227 110.548C79.9525 113.971 75.4131 117.052 70.6514 119.761L125 203H95.2629L52.92 129.296L18.7962 129.25ZM18.7962 109.627H59.9387C63.4633 107.728 66.7105 105.357 69.5893 102.579C72.365 99.8185 74.7848 96.7236 76.7927 93.3659C78.7467 90.0614 80.297 86.5354 81.4103 82.8631C82.4493 79.176 82.9623 75.3611 82.9341 71.5312C82.9952 66.9278 82.148 62.3574 80.4406 58.0803C78.7655 53.9388 76.1402 50.2469 72.7755 47.3011C69.0028 44.0999 64.6433 41.6594 59.9387 40.115C54.0959 38.3045 48.0013 37.4337 41.884 37.5354H18.7962V109.627Z" fill="#68D5FF"/>
<path d="M145.004 68.093H168.827V153.72C168.789 158.079 169.454 162.416 170.797 166.557C171.962 170.187 173.762 173.575 176.111 176.557C178.39 179.318 181.236 181.54 184.449 183.068C187.812 184.624 191.473 185.403 195.169 185.347C198.607 185.345 202.018 184.731 205.248 183.533C208.609 182.336 211.834 180.777 214.868 178.882C217.939 176.941 220.836 174.732 223.527 172.278C226.208 169.806 228.732 167.165 231.086 164.371V68H255V203.208H236.4L232.46 179.952C229.345 182.836 226.046 185.812 222.473 188.836C218.925 191.87 215.175 194.652 211.249 197.161C207.284 199.717 203.079 201.867 198.696 203.58C194.214 205.209 189.485 206.027 184.724 205.998C179.279 206.052 173.892 204.86 168.964 202.51C164.121 200.233 159.823 196.917 156.366 192.789C152.678 188.325 149.85 183.197 148.028 177.673C145.948 171.348 144.926 164.713 145.004 158.045V68.093Z" fill="#68D5FF"/>
<path d="M291.849 176.643L294.112 175.12C297.385 176.896 300.781 178.439 304.272 179.735C307.828 181.12 311.292 182.228 314.802 183.243C318.156 184.162 321.565 184.871 325.008 185.366C328.064 185.842 331.152 186.089 334.245 186.105C337.922 186.152 341.588 185.702 345.144 184.766C348.15 183.949 350.993 182.622 353.549 180.843C355.793 179.258 357.655 177.192 358.999 174.796C360.304 172.372 360.971 169.656 360.938 166.904C361.111 163.562 360.042 160.274 357.936 157.672C355.688 155.137 352.976 153.053 349.947 151.534C346.36 149.611 342.584 148.064 338.678 146.918C334.476 145.672 330.181 144.333 325.793 142.948C321.406 141.564 317.065 140.133 312.862 138.333C308.809 136.763 305.012 134.601 301.594 131.917C298.348 129.396 295.632 126.259 293.604 122.686C291.482 118.517 290.434 113.884 290.556 109.208C290.516 103.4 291.878 97.6683 294.528 92.4992C297.176 87.1619 300.921 82.4434 305.519 78.6523C310.623 74.588 316.409 71.4624 322.607 69.4209C329.724 67.0653 337.185 65.911 344.682 66.0054C346.668 66.0054 348.931 66.0054 351.656 66.0054C354.38 66.0054 357.244 66.4208 360.292 66.79C363.34 67.1593 366.434 67.667 369.528 68.267C372.622 68.8671 375.763 69.6979 378.765 70.621L373.685 90.376L370.683 92.1761C368.186 90.8821 365.592 89.7864 362.924 88.899C360.096 87.9769 357.211 87.2369 354.288 86.6835C351.425 86.1296 348.561 85.7142 345.79 85.4373C343.019 85.1603 340.572 84.9757 338.493 84.9757C334.911 84.9274 331.338 85.3621 327.872 86.2681C324.962 86.9719 322.196 88.1744 319.697 89.8222C317.443 91.4398 315.632 93.5986 314.432 96.0995C313.181 98.4426 312.53 101.059 312.539 103.715C312.448 107.046 313.508 110.306 315.541 112.947C317.779 115.586 320.549 117.725 323.669 119.224C327.332 121.122 331.167 122.668 335.122 123.84C339.371 125.04 343.758 126.424 348.238 127.763C352.688 129.072 357.065 130.613 361.354 132.379C365.493 133.967 369.381 136.144 372.9 138.84C376.223 141.404 378.963 144.645 380.935 148.349C383.099 152.635 384.147 157.397 383.983 162.196C384.046 168.275 382.586 174.273 379.735 179.643C376.849 185.009 372.887 189.723 368.096 193.49C362.895 197.561 357.017 200.685 350.732 202.721C343.84 204.943 336.637 206.049 329.396 205.998C322.409 205.914 315.448 205.141 308.613 203.69C301.24 202.21 294.008 200.095 287 197.367L291.849 176.643Z" fill="#68D5FF"/>
<path d="M414 203H438V0H414V203Z" fill="#68D5FF"/>
<path d="M547.032 183.185C544.892 184.947 542.379 187.125 539.308 189.721C536.127 192.453 532.735 194.933 529.165 197.138C525.259 199.59 521.112 201.64 516.789 203.257C512.252 204.953 507.444 205.817 502.598 205.806C498.085 205.793 493.61 204.976 489.385 203.396C485.139 201.874 481.258 199.491 477.985 196.396C474.55 193.228 471.823 189.374 469.983 185.086C467.933 180.086 466.92 174.725 467.005 169.325C467.005 165.594 467.442 161.876 468.308 158.246C469.302 154.447 470.871 150.821 472.96 147.492C475.244 143.872 478.068 140.621 481.335 137.85C485.169 134.585 489.485 131.927 494.13 129.97C499.862 127.475 505.877 125.684 512.043 124.639C519.867 123.322 527.792 122.701 535.726 122.785H547.218V110.918C547.255 107.298 546.575 103.707 545.217 100.349C543.844 97.3246 541.865 94.6115 539.401 92.3759C536.879 90.0834 533.92 88.318 530.701 87.1842C527.116 85.9214 523.337 85.2939 519.534 85.33C516.234 85.3606 512.946 85.7178 509.717 86.3961C506.221 87.1109 502.783 88.0871 499.434 89.3165C496.01 90.5557 492.708 92.1074 489.571 93.952C486.62 95.4838 483.856 97.3504 481.335 99.5146L479.009 98.263L473.937 79.721C478.549 77.2045 483.321 74.9903 488.221 73.0923C496.288 69.8248 504.751 67.6274 513.393 66.5563C517.254 66.1854 520.93 66 524.373 66C540.285 66 552.057 69.2448 559.827 75.8272C567.597 82.4096 571.366 92.1905 571.366 105.355V171.735C571.286 173.079 571.286 174.425 571.366 175.768C571.523 177.372 571.948 178.939 572.622 180.404C573.241 181.845 574.198 183.117 575.413 184.112C576.861 185.185 578.636 185.725 580.438 185.642C582.002 185.591 583.559 185.405 585.091 185.086C587.136 184.69 589.122 184.036 591 183.139V196.582C587.123 199.275 582.976 201.559 578.624 203.396C574.867 205.043 570.817 205.926 566.713 205.992C563.722 206.086 560.761 205.365 558.152 203.906C555.9 202.55 553.977 200.713 552.522 198.529C551.003 196.249 549.813 193.768 548.986 191.158C548.055 188.423 547.311 185.827 546.706 183.324L547.032 183.185ZM547.032 137.387H537.354C529.36 137.173 521.367 137.872 513.532 139.472C508.695 140.444 504.095 142.35 499.993 145.081C497.124 147.058 494.971 149.903 493.851 153.194C492.872 156.266 492.385 159.473 492.409 162.696C492.36 165.94 492.863 169.169 493.898 172.245C494.805 174.898 496.264 177.331 498.178 179.384C499.997 181.41 502.257 182.996 504.785 184.02C507.411 185.033 510.204 185.552 513.02 185.549C515.397 185.509 517.765 185.245 520.093 184.761C522.793 184.086 525.401 183.09 527.863 181.795C530.966 180.154 533.91 178.23 536.656 176.046C540.259 173.172 543.678 170.076 546.892 166.776V137.387" fill="#68D5FF"/>
<path d="M613 68.7323H631.742L635.583 91.8421C638.544 88.9765 641.922 86.1109 645.671 83.0604C649.599 79.9925 653.743 77.2121 658.073 74.7409C662.586 72.2085 667.327 70.104 672.233 68.455C677.187 66.8109 682.376 65.9835 687.596 66.0054C693.363 65.9082 699.077 67.1253 704.302 69.5643C709.234 71.989 713.589 75.4404 717.074 79.6864C720.682 84.1934 723.413 89.3353 725.126 94.8464C727.109 101.06 728.078 107.552 727.995 114.074V203H703.839V116.292C703.939 111.873 703.233 107.472 701.757 103.305C700.536 99.8452 698.578 96.6915 696.019 94.0606C693.583 91.5365 690.587 89.6206 687.273 88.4681C683.752 87.1515 680.018 86.4935 676.259 86.5269C669.228 86.5052 662.332 88.4592 656.36 92.1656C649.449 96.3448 643.011 101.257 637.156 106.817V203H613.093L613 68.7323Z" fill="#68D5FF"/>
<path d="M794.946 210.521C792.527 211.729 790.187 213.09 787.939 214.594C785.518 216.188 783.236 217.984 781.116 219.964C779.071 221.867 777.302 224.048 775.861 226.445C774.455 228.726 773.705 231.354 773.695 234.037C773.697 236.776 774.551 239.447 776.138 241.675C778.036 244.287 780.493 246.438 783.329 247.97C787.007 249.95 790.951 251.384 795.038 252.229C800.262 253.364 805.597 253.907 810.942 253.849C817.148 253.931 823.341 253.247 829.381 251.812C834.266 250.697 838.937 248.79 843.211 246.165C846.629 244.127 849.532 241.323 851.693 237.971C853.581 235.049 854.589 231.641 854.597 228.158C854.675 225.29 853.888 222.466 852.338 220.057C850.725 217.758 848.613 215.859 846.161 214.502C843.353 213.011 840.338 211.95 837.218 211.354C833.703 210.722 830.14 210.397 826.569 210.382L794.946 210.521ZM777.705 207.929C775.154 207.154 772.696 206.098 770.376 204.781C768.221 203.621 766.223 202.19 764.429 200.522C762.785 199.033 761.439 197.241 760.464 195.245C759.489 193.241 758.985 191.04 758.989 188.81C758.976 186.028 759.709 183.294 761.11 180.895C762.608 178.276 764.419 175.85 766.503 173.673C768.838 171.258 771.383 169.058 774.109 167.1C776.968 164.97 779.826 163.026 782.776 161.036C774.622 157.468 767.704 151.553 762.896 144.039C758.088 136.525 755.605 127.748 755.763 118.818C755.728 113.651 756.505 108.511 758.067 103.588C759.613 98.9436 761.818 94.5469 764.613 90.5343C767.367 86.6049 770.657 83.0833 774.386 80.0725C778.062 77.015 782.085 74.4046 786.372 72.2956C790.668 70.242 795.184 68.6889 799.832 67.6665C804.363 66.5768 809.003 66.0176 813.662 66C819.109 66.0003 824.533 66.7161 829.796 68.1294C834.494 69.2385 838.98 71.1151 843.072 73.6843C844.639 72.7623 846.311 72.0319 848.051 71.5086C850.096 70.7955 852.192 70.2384 854.32 69.8422C856.533 69.4255 858.93 69.0552 860.958 68.7775C863.04 68.5468 865.133 68.4232 867.228 68.4071H890L884.929 87.5717H855.15C856.126 88.3989 856.994 89.3478 857.731 90.3954C859.047 92.3266 860.188 94.3715 861.143 96.5058C862.381 99.3067 863.399 102.201 864.185 105.162C865.111 108.602 865.561 112.154 865.522 115.717C865.521 122.483 863.858 129.145 860.682 135.113C857.429 141.132 853.083 146.486 847.866 150.898C842.467 155.444 836.363 159.072 829.796 161.637C823.187 164.24 816.151 165.575 809.052 165.572C807.208 165.572 805.364 165.572 803.428 165.572C801.492 165.572 799.648 165.202 797.527 164.878C796.052 165.804 794.393 166.868 792.687 168.072C791.054 169.232 789.513 170.516 788.077 171.914C786.678 173.266 785.496 174.827 784.574 176.543C783.688 178.01 783.21 179.688 783.191 181.404C783.192 182.731 783.531 184.037 784.177 185.196C784.822 186.354 785.752 187.328 786.879 188.023C789.971 189.854 793.527 190.739 797.112 190.569H832.884C838.695 190.541 844.481 191.319 850.079 192.884C855.116 194.312 859.872 196.598 864.139 199.642C868.02 202.395 871.273 205.945 873.681 210.058C876.064 214.14 877.292 218.798 877.231 223.529C877.09 229.71 875.41 235.757 872.345 241.119C868.713 247.455 863.854 252.995 858.054 257.414C851.114 262.698 843.316 266.739 835.005 269.357C824.988 272.603 814.506 274.167 803.981 273.986C796.797 274.023 789.629 273.31 782.592 271.857C776.587 270.643 770.783 268.586 765.351 265.746C760.886 263.263 757.052 259.778 754.149 255.562C751.435 252.003 749.976 247.639 750 243.156C750.016 240.366 750.548 237.604 751.568 235.009C752.617 232.414 753.98 229.957 755.624 227.695C757.295 225.364 759.177 223.194 761.248 221.214C763.277 219.177 765.351 217.326 767.379 215.659C769.408 213.993 771.436 212.511 773.326 211.03C775.216 209.549 776.553 208.715 777.936 207.79L777.705 207.929ZM778.443 114.791C778.405 119.196 779.219 123.566 780.84 127.66C782.333 131.503 784.592 135 787.478 137.936C790.347 140.948 793.819 143.314 797.666 144.88C801.776 146.562 806.181 147.396 810.619 147.333C814.902 147.359 819.153 146.59 823.158 145.065C826.911 143.587 830.375 141.456 833.392 138.77C836.283 136.086 838.604 132.842 840.214 129.234C841.922 125.147 842.77 120.75 842.703 116.318C842.746 111.958 841.931 107.632 840.306 103.588C838.813 99.7611 836.536 96.2915 833.622 93.4043C830.661 90.4398 827.154 88.0815 823.296 86.4607C819.186 84.779 814.781 83.9446 810.343 84.0072C806.078 83.972 801.843 84.7252 797.85 86.2292C794.146 87.6525 790.738 89.756 787.801 92.4322C784.84 95.1659 782.484 98.4935 780.886 102.2C779.152 106.181 778.302 110.493 778.397 114.837" fill="#68D5FF"/>
<path d="M911.145 68.093H935.183V153.721C935.131 158.078 935.786 162.414 937.125 166.558C938.312 170.202 940.162 173.593 942.58 176.558C944.846 179.315 947.687 181.538 950.901 183.069C954.295 184.625 957.989 185.404 961.718 185.348C965.188 185.346 968.63 184.732 971.889 183.534C975.258 182.355 978.484 180.794 981.504 178.883C984.626 176.956 987.566 174.745 990.287 172.279C992.981 169.795 995.528 167.155 997.915 164.372V68H1022V203.209H1003.28L999.256 179.953C996.112 182.837 992.784 185.813 989.224 188.837C985.635 191.86 981.852 194.641 977.898 197.162C973.883 199.721 969.624 201.871 965.185 203.581C960.661 205.206 955.89 206.025 951.086 205.999C945.648 206.026 940.27 204.858 935.327 202.576C930.385 200.295 925.997 196.955 922.471 192.79C918.74 188.325 915.871 183.199 914.011 177.674C911.927 171.346 910.912 164.712 911.006 158.046L911.145 68.093Z" fill="#68D5FF"/>
<path d="M1129.19 183.294L1121.64 189.799C1118.47 192.518 1115.1 194.985 1111.55 197.18C1107.7 199.629 1103.61 201.669 1099.34 203.269C1094.92 204.925 1090.24 205.784 1085.52 205.806C1081.05 205.796 1076.62 204.984 1072.44 203.407C1068.23 201.879 1064.37 199.509 1061.11 196.442C1057.64 193.299 1054.86 189.466 1052.95 185.186C1050.92 180.211 1049.92 174.875 1050 169.502C1050.03 165.79 1050.46 162.092 1051.29 158.476C1052.26 154.689 1053.82 151.078 1055.9 147.774C1058.16 144.172 1060.96 140.937 1064.19 138.179C1067.98 134.94 1072.24 132.296 1076.82 130.337C1082.51 127.854 1088.48 126.073 1094.6 125.032C1102.34 123.719 1110.19 123.102 1118.04 123.187H1129.19V111.377C1129.23 107.775 1128.56 104.201 1127.21 100.86C1125.92 97.8713 1124.04 95.1733 1121.68 92.9252C1119.2 90.644 1116.29 88.8868 1113.11 87.7586C1109.57 86.502 1105.82 85.8775 1102.06 85.9134C1098.79 85.9439 1095.54 86.2993 1092.34 86.9744C1088.87 87.6734 1085.47 88.6452 1082.16 89.8806C1078.77 91.1138 1075.5 92.658 1072.39 94.4937C1069.46 96.0294 1066.71 97.886 1064.19 100.029L1061.94 98.7838L1056.91 80.3317C1061.47 77.837 1066.18 75.6337 1071.01 73.735C1075.28 72.0907 1079.65 70.7194 1084.09 69.6294C1088.03 68.7081 1092.01 68.015 1096.02 67.5536C1099.85 67.1845 1103.44 67 1106.9 67C1122.6 67 1134.3 70.2291 1141.95 76.7796C1149.6 83.3301 1153.38 93.0636 1153.38 106.165V171.9C1153.39 173.242 1153.48 174.582 1153.65 175.914C1153.82 177.503 1154.22 179.059 1154.85 180.527C1155.5 181.942 1156.44 183.201 1157.61 184.217C1159.05 185.271 1160.81 185.807 1162.59 185.739C1164.14 185.689 1165.68 185.504 1167.2 185.186C1169.21 184.792 1171.16 184.141 1173 183.248V196.626C1169.17 199.296 1165.08 201.569 1160.79 203.407C1157.07 205.042 1153.06 205.92 1149 205.991C1146.04 206.092 1143.1 205.374 1140.52 203.915C1138.3 202.552 1136.4 200.727 1134.95 198.564C1133.43 196.305 1132.25 193.833 1131.45 191.229C1130.5 188.687 1129.73 186.082 1129.15 183.433L1129.19 183.294ZM1129.19 137.718H1119.61C1111.7 137.512 1103.78 138.208 1096.02 139.794C1091.25 140.76 1086.71 142.656 1082.67 145.375C1079.83 147.343 1077.69 150.173 1076.58 153.448C1075.64 156.511 1075.16 159.699 1075.16 162.905C1075.1 166.137 1075.61 169.355 1076.68 172.408C1077.58 175.048 1079.02 177.468 1080.91 179.512C1082.72 181.528 1084.95 183.106 1087.46 184.125C1090.06 185.133 1092.82 185.649 1095.61 185.647C1097.96 185.607 1100.31 185.344 1102.61 184.863C1105.29 184.191 1107.87 183.2 1110.3 181.911C1113.37 180.308 1116.29 178.424 1119.01 176.283C1122.58 173.422 1125.96 170.341 1129.15 167.057V137.718" fill="#68D5FF"/>
<path d="M1232.24 210.521C1229.8 211.729 1227.44 213.09 1225.18 214.594C1222.73 216.199 1220.42 217.995 1218.26 219.964C1216.19 221.878 1214.4 224.057 1212.92 226.445C1211.53 228.739 1210.8 231.361 1210.78 234.037C1210.78 236.776 1211.64 239.447 1213.24 241.675C1215.15 244.287 1217.63 246.438 1220.49 247.97C1224.17 249.95 1228.13 251.384 1232.24 252.229C1237.51 253.366 1242.9 253.909 1248.3 253.849C1254.56 253.928 1260.8 253.244 1266.88 251.812C1271.8 250.692 1276.51 248.785 1280.81 246.165C1284.25 244.114 1287.17 241.313 1289.36 237.971C1291.24 235.039 1292.26 231.638 1292.29 228.158C1292.37 225.283 1291.56 222.452 1289.96 220.057C1288.37 217.749 1286.25 215.847 1283.79 214.502C1280.94 213.012 1277.89 211.951 1274.73 211.354C1271.21 210.717 1267.63 210.392 1264.05 210.382L1232.24 210.521ZM1214.87 207.929C1212.3 207.154 1209.82 206.098 1207.48 204.781C1205.31 203.621 1203.3 202.19 1201.49 200.522C1199.83 199.033 1198.48 197.241 1197.5 195.245C1196.51 193.241 1196.01 191.04 1196.01 188.81C1196 186.028 1196.74 183.294 1198.15 180.895C1199.66 178.276 1201.48 175.85 1203.58 173.673C1205.94 171.269 1208.51 169.07 1211.24 167.1C1214.12 164.97 1217 163.026 1219.97 161.036C1211.76 157.468 1204.79 151.553 1199.95 144.039C1195.1 136.525 1192.6 127.748 1192.76 118.818C1192.72 113.651 1193.51 108.511 1195.08 103.588C1196.64 98.9436 1198.86 94.5469 1201.68 90.5343C1204.45 86.6049 1207.76 83.0833 1211.52 80.0725C1215.23 77.015 1219.28 74.4046 1223.6 72.2956C1227.93 70.242 1232.48 68.6889 1237.16 67.6665C1241.72 66.5768 1246.4 66.0176 1251.09 66C1256.58 66.0003 1262.04 66.7161 1267.35 68.1294C1272.08 69.2385 1276.6 71.1151 1280.72 73.6843C1282.3 72.7623 1283.98 72.0319 1285.74 71.5086C1287.8 70.7955 1289.91 70.2384 1292.05 69.8422C1294.28 69.4255 1296.7 69.0552 1298.74 68.7775C1300.78 68.4997 1303.11 68.4071 1305.06 68.4071H1328L1322.89 87.5717H1292.89C1293.87 88.3989 1294.75 89.3478 1295.49 90.3954C1296.82 92.3181 1297.95 94.3645 1298.88 96.5058C1300.13 99.3003 1301.14 102.196 1301.9 105.162C1302.85 108.6 1303.32 112.151 1303.29 115.717C1303.3 122.49 1301.61 129.157 1298.37 135.113C1295.12 141.14 1290.76 146.497 1285.51 150.898C1280.06 155.432 1273.91 159.059 1267.3 161.637C1260.63 164.241 1253.52 165.575 1246.35 165.572C1244.5 165.572 1242.64 165.572 1240.73 165.572C1238.83 165.572 1236.88 165.202 1234.79 164.878C1233.3 165.804 1231.63 166.868 1230.15 168.072C1228.5 169.233 1226.95 170.518 1225.5 171.914C1224.11 173.278 1222.92 174.838 1221.97 176.543C1221.09 178.014 1220.63 179.692 1220.62 181.404C1220.63 182.735 1220.99 184.042 1221.64 185.2C1222.3 186.358 1223.25 187.33 1224.39 188.023C1227.5 189.854 1231.08 190.739 1234.7 190.569H1270.74C1276.59 190.541 1282.42 191.319 1288.06 192.884C1293.13 194.312 1297.93 196.598 1302.22 199.642C1306.13 202.395 1309.41 205.945 1311.84 210.058C1314.24 214.14 1315.48 218.798 1315.41 223.529C1315.27 229.71 1313.58 235.757 1310.49 241.119C1306.83 247.455 1301.94 252.995 1296.09 257.414C1289.1 262.698 1281.25 266.739 1272.87 269.357C1262.78 272.603 1252.22 274.167 1241.62 273.986C1234.38 274.023 1227.16 273.31 1220.07 271.857C1214.02 270.643 1208.17 268.586 1202.7 265.746C1198.18 263.477 1194.25 260.217 1191.18 256.21C1188.45 252.651 1186.98 248.287 1187 243.804C1187.02 241.014 1187.55 238.252 1188.58 235.657C1189.64 233.062 1191.01 230.605 1192.67 228.343C1194.35 226.012 1196.25 223.843 1198.33 221.862C1200.38 219.825 1202.47 217.974 1204.51 216.307C1206.55 214.641 1208.6 213.159 1210.5 211.678C1212.4 210.197 1213.75 209.364 1215.14 208.438L1214.87 207.929ZM1215.61 114.791C1215.57 119.196 1216.39 123.566 1218.02 127.66C1219.53 131.503 1221.8 135 1224.71 137.936C1227.6 140.948 1231.1 143.314 1234.98 144.88C1239.12 146.562 1243.55 147.396 1248.03 147.333C1252.34 147.359 1256.62 146.59 1260.66 145.065C1264.44 143.587 1267.93 141.456 1270.97 138.77C1273.88 136.086 1276.22 132.842 1277.84 129.234C1279.56 125.147 1280.42 120.75 1280.35 116.318C1280.39 111.958 1279.57 107.632 1277.93 103.588C1276.43 99.7611 1274.14 96.2915 1271.2 93.4043C1268.21 90.5277 1264.69 88.2492 1260.84 86.6921C1256.7 85.0104 1252.26 84.1761 1247.79 84.2387C1243.5 84.2035 1239.23 84.9567 1235.21 86.4607C1231.48 87.884 1228.04 89.9875 1225.08 92.6637C1222.1 95.3974 1219.73 98.725 1218.12 102.431C1216.37 106.412 1215.51 110.725 1215.61 115.069" fill="#68D5FF"/>
<path d="M1446.25 191.796C1442.76 194.213 1439 196.239 1435.06 197.837C1430.78 199.623 1426.41 201.163 1421.95 202.449C1417.47 203.599 1412.93 204.477 1408.34 205.077C1404.14 205.682 1399.9 205.991 1395.65 206C1387.19 206.021 1378.79 204.569 1370.84 201.711C1363.14 198.98 1356.11 194.656 1350.23 189.028C1344.17 183.175 1339.4 176.139 1336.24 168.368C1332.59 159.34 1330.81 149.679 1331.02 139.959C1330.87 129.671 1332.77 119.455 1336.61 109.891C1340.02 101.336 1345.05 93.5077 1351.44 86.8318C1357.57 80.5647 1364.92 75.5778 1373.03 72.1664C1381.12 68.7265 1389.83 66.9683 1398.64 67.0013C1405.56 66.9553 1412.44 68.1587 1418.92 70.5523C1425.03 72.8836 1430.54 76.5215 1435.06 81.2055C1439.94 86.371 1443.66 92.501 1445.97 99.1914C1448.81 107.314 1450.17 115.871 1449.98 124.464C1449.98 126.447 1449.98 128.799 1449.7 131.428C1449.66 134.266 1449.44 137.1 1449.05 139.913H1356.2C1356.08 146.588 1357.42 153.209 1360.12 159.329C1362.6 164.908 1366.37 169.835 1371.12 173.717C1376.1 177.797 1381.86 180.84 1388.05 182.664C1395.09 184.701 1402.4 185.711 1409.74 185.662C1411.69 185.662 1414.12 185.662 1416.92 185.662C1419.72 185.662 1422.75 185.155 1425.97 184.647C1429.38 184.161 1432.75 183.405 1436.04 182.388C1439.55 181.441 1442.95 180.159 1446.21 178.56L1446.25 191.796ZM1427.04 124.787C1427.14 119.081 1426.24 113.401 1424.38 108C1422.77 103.516 1420.3 99.3813 1417.1 95.8248C1414.12 92.61 1410.46 90.0765 1406.38 88.3998C1402.01 86.6302 1397.32 85.7701 1392.6 85.8732C1387.89 85.9764 1383.24 87.0406 1378.96 88.9994C1374.49 91.0251 1370.48 93.9098 1367.16 97.485C1363.76 101.101 1361.05 105.286 1359.14 109.845C1357.17 114.62 1356.16 119.724 1356.15 124.879L1427.04 124.787Z" fill="#68D5FF"/>
</svg>
